<svg width="33" height="33" viewBox="0 0 33 33" fill="none" xmlns="http://www.w3.org/2000/svg">
<g id="gearshape" clip-path="url(#clip0_1210_16593)">
<g id="Group">
<path id="Vector" d="M14.5079 32.0101H17.5321C18.1111 32.0101 18.6077 31.8479 19.0219 31.5235C19.4361 31.199 19.7082 30.7574 19.838 30.1985L20.4817 27.3987L20.9608 27.2341L23.4013 28.7312C23.8803 29.0407 24.3844 29.1604 24.9134 29.0905C25.4424 29.0206 25.9116 28.7811 26.3208 28.372L28.4169 26.2907C28.826 25.8815 29.0656 25.4124 29.1355 24.8835C29.2054 24.3544 29.0856 23.8503 28.7761 23.3712L27.249 20.9458L27.4286 20.4966L30.2285 19.8379C30.7774 19.7081 31.2166 19.4336 31.546 19.0143C31.8753 18.5952 32.04 18.1011 32.04 17.5321V14.5677C32.04 13.9988 31.8753 13.5047 31.546 13.0855C31.2166 12.6663 30.7774 12.3918 30.2285 12.2621L27.4587 11.5883L27.264 11.1092L28.7911 8.68374C29.1005 8.20464 29.2203 7.70308 29.1505 7.17907C29.0806 6.65504 28.841 6.18342 28.4318 5.76422L26.3357 3.66814C25.9365 3.26888 25.4723 3.03431 24.9433 2.96445C24.4144 2.89458 23.9103 3.00936 23.4312 3.3088L20.9907 4.80601L20.4817 4.61136L19.838 1.81161C19.7082 1.26264 19.4361 0.823458 19.0219 0.494076C18.6077 0.164692 18.1111 0 17.5321 0H14.5079C13.9289 0 13.4324 0.164692 13.0181 0.494076C12.6039 0.823458 12.3319 1.26264 12.2022 1.81161L11.5434 4.61136L11.0344 4.80601L8.60889 3.3088C8.11981 3.00936 7.61326 2.89458 7.08923 2.96445C6.56522 3.03431 6.09859 3.26888 5.68936 3.66814L3.60826 5.76422C3.18904 6.18342 2.94699 6.65504 2.8821 7.17907C2.81723 7.70308 2.9395 8.20464 3.24892 8.68374L4.7611 11.1092L4.58143 11.5883L1.81161 12.2621C1.25266 12.3918 0.810983 12.6663 0.48659 13.0855C0.162197 13.5047 0 13.9988 0 14.5677V17.5321C0 18.1011 0.164692 18.5952 0.494076 19.0143C0.823459 19.4336 1.26264 19.7081 1.81161 19.8379L4.61137 20.4966L4.77606 20.9458L3.2639 23.3712C2.95447 23.8503 2.8322 24.3544 2.89708 24.8835C2.96195 25.4124 3.204 25.8815 3.62322 26.2907L5.70432 28.372C6.11356 28.7811 6.58268 29.0206 7.11169 29.0905C7.64071 29.1604 8.14976 29.0407 8.63885 28.7312L11.0643 27.2341L11.5434 27.3987L12.2022 30.1985C12.3319 30.7574 12.6039 31.199 13.0181 31.5235C13.4324 31.8479 13.9289 32.0101 14.5079 32.0101ZM14.7474 29.6745C14.4979 29.6745 14.3532 29.5597 14.3132 29.3302L13.4149 25.6171C12.9558 25.5073 12.5191 25.3651 12.1049 25.1904C11.6906 25.0157 11.3238 24.8286 11.0044 24.629L7.74052 26.6351C7.56086 26.7649 7.3762 26.7399 7.18656 26.5603L5.41987 24.7936C5.26017 24.6439 5.2402 24.4592 5.35997 24.2396L7.36622 21.0057C7.19654 20.6863 7.02186 20.322 6.8422 19.9128C6.66254 19.5035 6.51282 19.0693 6.39304 18.6102L2.67999 17.7268C2.45042 17.6869 2.33563 17.5421 2.33563 17.2926V14.7923C2.33563 14.5528 2.45042 14.408 2.67999 14.3581L6.37807 13.4598C6.49784 12.9707 6.65504 12.5166 6.84968 12.0973C7.04432 11.6781 7.20652 11.3288 7.33628 11.0493L5.345 7.81538C5.21525 7.59578 5.23022 7.40114 5.38991 7.23147L7.17158 5.49471C7.35125 5.33501 7.5409 5.31006 7.74052 5.41986L10.9745 7.38118C11.2939 7.20152 11.6707 7.02185 12.1049 6.84219C12.539 6.66253 12.9807 6.51281 13.4299 6.39303L14.3132 2.67999C14.3532 2.45042 14.4979 2.33563 14.7474 2.33563H17.2927C17.5421 2.33563 17.6819 2.45042 17.7118 2.67999L18.6251 6.42297C19.0942 6.54275 19.5309 6.68998 19.9352 6.86465C20.3394 7.03933 20.7062 7.21649 21.0356 7.39616L24.2845 5.41986C24.4941 5.31006 24.6888 5.33501 24.8685 5.49471L26.6351 7.23147C26.8049 7.40114 26.8198 7.59578 26.68 7.81538L24.6888 11.0493C24.8285 11.3288 24.9932 11.6781 25.1829 12.0973C25.3725 12.5166 25.5272 12.9707 25.647 13.4598L29.3601 14.3581C29.5896 14.408 29.7044 14.5528 29.7044 14.7923V17.2926C29.7044 17.5421 29.5896 17.6869 29.3601 17.7268L25.6321 18.6102C25.5123 19.0693 25.3651 19.5035 25.1904 19.9128C25.0158 20.322 24.8386 20.6863 24.6589 21.0057L26.6651 24.2396C26.7949 24.4592 26.7749 24.6439 26.6052 24.7936L24.8534 26.5603C24.6638 26.7399 24.4742 26.7649 24.2845 26.6351L21.0206 24.629C20.7012 24.8286 20.3369 25.0157 19.9276 25.1904C19.5185 25.3651 19.0843 25.5073 18.6251 25.6171L17.7118 29.3302C17.6819 29.5597 17.5421 29.6745 17.2927 29.6745H14.7474ZM16.02 21.7243C17.0681 21.7243 18.0238 21.4673 18.8871 20.9533C19.7506 20.4393 20.4393 19.7481 20.9533 18.8797C21.4673 18.0113 21.7243 17.0531 21.7243 16.0051C21.7243 14.967 21.4673 14.0163 20.9533 13.1529C20.4393 12.2895 19.7506 11.6008 18.8871 11.0868C18.0238 10.5727 17.0681 10.3157 16.02 10.3157C14.972 10.3157 14.0163 10.5727 13.1529 11.0868C12.2895 11.6008 11.5983 12.2895 11.0793 13.1529C10.5602 14.0163 10.3007 14.967 10.3007 16.0051C10.3007 17.0531 10.5602 18.0088 11.0793 18.8722C11.5983 19.7356 12.2895 20.4268 13.1529 20.9458C14.0163 21.4648 14.972 21.7243 16.02 21.7243ZM16.02 19.4036C15.4012 19.4036 14.8347 19.2514 14.3207 18.947C13.8067 18.6426 13.3974 18.2333 13.093 17.7193C12.7886 17.2053 12.6364 16.6339 12.6364 16.0051C12.6364 15.3862 12.7886 14.8223 13.093 14.3132C13.3974 13.8042 13.8067 13.3974 14.3207 13.093C14.8347 12.7886 15.4012 12.6363 16.02 12.6363C16.6289 12.6363 17.1878 12.7886 17.6969 13.093C18.2059 13.3974 18.6127 13.8042 18.9172 14.3132C19.2215 14.8223 19.3737 15.3862 19.3737 16.0051C19.3737 16.6239 19.2215 17.1903 18.9172 17.7044C18.6127 18.2184 18.2059 18.6301 17.6969 18.9395C17.1878 19.2489 16.6289 19.4036 16.02 19.4036Z" fill="black"/>
</g>
</g>
<defs>
<clipPath id="clip0_1210_16593">
<rect width="32.04" height="32.0251" fill="white"/>
</clipPath>
</defs>
</svg>
