<svg width="32" height="38" viewBox="0 0 32 38" fill="none" xmlns="http://www.w3.org/2000/svg">
<rect width="32" height="38" fill="#1E1E1E"/>
<path d="M-673 -1777C-673 -1778.1 -672.105 -1779 -671 -1779H3873C3874.1 -1779 3875 -1778.1 3875 -1777V1786C3875 1787.1 3874.1 1788 3873 1788H-671C-672.105 1788 -673 1787.1 -673 1786V-1777Z" fill="#404040"/>
<path d="M-671 -1778H3873V-1780H-671V-1778ZM3874 -1777V1786H3876V-1777H3874ZM3873 1787H-671V1789H3873V1787ZM-672 1786V-1777H-674V1786H-672ZM-671 1787C-671.552 1787 -672 1786.55 -672 1786H-674C-674 1787.66 -672.657 1789 -671 1789V1787ZM3874 1786C3874 1786.55 3873.55 1787 3873 1787V1789C3874.66 1789 3876 1787.66 3876 1786H3874ZM3873 -1778C3873.55 -1778 3874 -1777.55 3874 -1777H3876C3876 -1778.66 3874.66 -1780 3873 -1780V-1778ZM-671 -1780C-672.657 -1780 -674 -1778.66 -674 -1777H-672C-672 -1777.55 -671.552 -1778 -671 -1778V-1780Z" fill="white" fill-opacity="0.1"/>
<g clip-path="url(#clip0_1161_7515)">
<rect width="430" height="932" transform="translate(-38 -649)" fill="#F2F2F2"/>
<g filter="url(#filter0_d_1161_7515)">
<rect x="-21" y="-10" width="391" height="62" rx="12" fill="white" shape-rendering="crispEdges"/>
</g>
<g clip-path="url(#clip1_1161_7515)">
<path d="M20.859 9.90837C21.1184 9.90837 21.2573 9.77404 21.2759 9.50537C21.3778 8.69009 21.4844 8.05084 21.5955 7.58761C21.7067 7.12439 21.8828 6.77466 22.1236 6.53842C22.3645 6.30217 22.7235 6.12151 23.2006 5.99644C23.6777 5.87137 24.3285 5.73935 25.1531 5.60039C25.4403 5.57259 25.5839 5.43825 25.5839 5.19737C25.5839 4.96576 25.4588 4.83143 25.2086 4.79437C24.3748 4.63687 23.717 4.49559 23.2353 4.37052C22.7536 4.24545 22.3876 4.06711 22.1374 3.83549C21.8874 3.60388 21.7067 3.2611 21.5955 2.80715C21.4844 2.35318 21.3778 1.71856 21.2759 0.903288C21.2573 0.634617 21.1184 0.500282 20.859 0.500282C20.6181 0.500282 20.4884 0.629985 20.4699 0.889391C20.3587 1.71393 20.2476 2.36245 20.1364 2.83494C20.0252 3.30742 19.8492 3.6641 19.6083 3.90498C19.3674 4.14586 19.0061 4.3242 18.5244 4.44001C18.0426 4.55582 17.3756 4.67394 16.5232 4.79437C16.412 4.80364 16.3217 4.84533 16.2522 4.91944C16.1828 4.99356 16.1481 5.08621 16.1481 5.19737C16.1481 5.43825 16.2731 5.57259 16.5232 5.60039C17.3756 5.76715 18.0426 5.91538 18.5244 6.04508C19.0061 6.17479 19.3651 6.35545 19.6013 6.58706C19.8375 6.81867 20.0136 7.16377 20.1294 7.62236C20.2452 8.08095 20.3587 8.71788 20.4699 9.53316C20.4791 9.64434 20.5208 9.73467 20.595 9.80415C20.6691 9.87363 20.7571 9.90837 20.859 9.90837ZM11.5621 6.15625C11.7288 6.15625 11.8354 6.06824 11.8817 5.89221C12.0114 5.19737 12.1295 4.69941 12.2361 4.39832C12.3426 4.09722 12.5464 3.88877 12.8475 3.77297C13.1486 3.65716 13.6512 3.53441 14.3553 3.4047C14.5499 3.35838 14.6472 3.25184 14.6472 3.08508C14.6472 2.90905 14.5499 2.79787 14.3553 2.75155C13.8273 2.64964 13.4196 2.557 13.1324 2.47362C12.8452 2.39024 12.6321 2.27443 12.4932 2.1262C12.3542 1.97797 12.2453 1.76025 12.1666 1.47306C12.0878 1.18586 11.9929 0.787481 11.8817 0.277934C11.8354 0.0926446 11.7288 0 11.5621 0C11.3861 0 11.2795 0.0926446 11.2425 0.277934C11.1313 0.787481 11.0363 1.18586 10.9576 1.47306C10.8788 1.76025 10.7677 1.97797 10.6241 2.1262C10.4804 2.27443 10.2651 2.39024 9.97786 2.47362C9.69065 2.557 9.28301 2.64964 8.75494 2.75155C8.56039 2.79787 8.46312 2.90905 8.46312 3.08508C8.46312 3.25184 8.56039 3.35838 8.75494 3.4047C9.28301 3.50661 9.69297 3.59925 9.9848 3.68263C10.2766 3.76601 10.4944 3.8795 10.638 4.02311C10.7815 4.16671 10.8927 4.38442 10.9715 4.67625C11.0502 4.96808 11.1405 5.3734 11.2425 5.89221C11.2795 6.06824 11.3861 6.15625 11.5621 6.15625ZM3.98836 37.0765C4.18291 37.0765 4.29872 36.97 4.33579 36.7569C4.46548 36.0806 4.58129 35.5478 4.6832 35.1587C4.78511 34.7696 4.93334 34.4755 5.1279 34.2763C5.32245 34.0771 5.61659 33.9197 6.01033 33.8038C6.40407 33.688 6.95763 33.5652 7.67099 33.4355C7.88407 33.38 7.99061 33.2595 7.99061 33.0742C7.99061 32.8797 7.88407 32.7638 7.67099 32.7267C6.9669 32.5879 6.42029 32.4582 6.03118 32.3377C5.64207 32.2173 5.35024 32.0575 5.15569 31.8583C4.96114 31.659 4.8129 31.3672 4.711 30.9828C4.60908 30.5983 4.48401 30.0679 4.33579 29.3916C4.29872 29.1785 4.18291 29.072 3.98836 29.072C3.81234 29.072 3.69653 29.1785 3.64094 29.3916C3.50198 30.0679 3.38154 30.5983 3.27963 30.9828C3.17772 31.3672 3.03181 31.659 2.84188 31.8583C2.65196 32.0575 2.36245 32.2173 1.97334 32.3377C1.58423 32.4582 1.03299 32.5879 0.319624 32.7267C0.106541 32.7638 0 32.8797 0 33.0742C0 33.2595 0.106541 33.38 0.319624 33.4355C1.03299 33.5745 1.58654 33.7019 1.98028 33.8176C2.37402 33.9335 2.66817 34.091 2.86273 34.2902C3.05728 34.4893 3.2032 34.7812 3.30048 35.1657C3.39776 35.5502 3.51124 36.0806 3.64094 36.7569C3.69653 36.97 3.81234 37.0765 3.98836 37.0765ZM25.3616 33.102C27.094 31.3788 28.0968 29.4472 28.3701 27.3071C28.6435 25.167 28.1872 22.8508 27.0013 20.3587L23.8745 13.7578C23.6522 13.3038 23.3929 12.9286 23.0964 12.6321C22.5776 12.1133 21.98 11.8609 21.3037 11.8748C20.6274 11.8887 20.0391 12.1504 19.5389 12.6599C19.196 12.9934 18.9806 13.4034 18.8927 13.8898C18.8046 14.3761 18.8718 14.8973 19.0942 15.4532L20.0252 17.6627C20.053 17.7276 20.0484 17.7786 20.0113 17.8156C19.9557 17.862 19.9001 17.8574 19.8445 17.8018L11.9651 9.92227C11.3907 9.34787 10.77 9.05835 10.1029 9.05371C9.43588 9.04909 8.82905 9.32007 8.28245 9.86668C8.07863 10.0705 7.92114 10.2952 7.80996 10.5407C7.69879 10.7862 7.6432 11.0386 7.6432 11.298C7.0688 10.8626 6.48282 10.6542 5.88526 10.6727C5.28771 10.6912 4.74342 10.946 4.2524 11.437C3.77991 11.9095 3.53208 12.4492 3.50892 13.056C3.48577 13.6628 3.68264 14.2442 4.09954 14.8C3.58999 14.8093 3.14529 15.0039 2.76545 15.3836C2.2559 15.8933 2.01039 16.4677 2.02892 17.1069C2.04745 17.7461 2.32538 18.3391 2.86273 18.8857L3.96056 19.9696C3.6919 19.9696 3.42554 20.0275 3.16151 20.1434C2.89747 20.2591 2.65891 20.4235 2.44582 20.6367C1.93628 21.1463 1.69308 21.7322 1.71624 22.3946C1.73941 23.0569 2.02893 23.6615 2.5848 24.2081L11.034 32.6573C12.5626 34.1859 14.17 35.2143 15.8562 35.7424C17.5423 36.2705 19.203 36.3098 20.8382 35.8605C22.4734 35.4112 23.9812 34.4917 25.3616 33.102ZM23.9579 31.7958C22.7999 32.9539 21.5607 33.7089 20.2405 34.0608C18.9204 34.4129 17.5747 34.355 16.2036 33.8872C14.8324 33.4193 13.4891 32.523 12.1735 31.1981L4.01616 23.0547C3.81234 22.8416 3.7058 22.6077 3.69654 22.3529C3.68727 22.0982 3.78454 21.8689 3.98836 21.665C4.19218 21.4704 4.42611 21.3731 4.69015 21.3731C4.95419 21.3731 5.18811 21.4751 5.39193 21.6789L10.4086 26.7095C10.5939 26.8856 10.8047 26.9666 11.041 26.9527C11.2772 26.9388 11.4741 26.8532 11.6316 26.6957C11.7983 26.5289 11.891 26.3251 11.9095 26.0842C11.928 25.8433 11.8446 25.6349 11.6594 25.4588L4.15512 17.9407C3.94204 17.7369 3.83086 17.5076 3.82161 17.2528C3.81234 16.998 3.90961 16.7687 4.11343 16.5649C4.31725 16.3611 4.55118 16.2592 4.81522 16.2592C5.07926 16.2592 5.31782 16.3657 5.5309 16.5788L12.5348 23.5828C12.7109 23.7681 12.917 23.8537 13.1533 23.8398C13.3895 23.826 13.591 23.7356 13.7578 23.5689C13.9245 23.4021 14.0149 23.2006 14.0288 22.9644C14.0427 22.7281 13.9616 22.5174 13.7856 22.3321L5.55869 14.1052C5.34561 13.9014 5.23675 13.6674 5.23212 13.4034C5.22749 13.1394 5.32709 12.9054 5.5309 12.7016C5.72546 12.4978 5.95475 12.4005 6.21879 12.4098C6.48283 12.419 6.72139 12.5302 6.93447 12.7433L15.1613 20.9701C15.3281 21.1369 15.5296 21.218 15.7658 21.2133C16.0021 21.2087 16.2036 21.123 16.3703 20.9563C16.5464 20.7803 16.6391 20.5718 16.6483 20.3309C16.6576 20.09 16.5742 19.8862 16.3981 19.7194L9.39419 12.7016C9.1811 12.4978 9.07225 12.2662 9.06762 12.0068C9.06299 11.7474 9.16258 11.5158 9.36639 11.3119C9.57022 11.1081 9.80183 11.0085 10.0612 11.0132C10.3206 11.0178 10.5569 11.1267 10.77 11.3397L20.442 21.0118C20.6829 21.2527 20.9377 21.3755 21.2064 21.3801C21.475 21.3848 21.7113 21.2852 21.9152 21.0814C22.0911 20.9053 22.2069 20.6969 22.2625 20.456C22.3181 20.2151 22.2764 19.9187 22.1374 19.5666L20.4004 14.9946C20.28 14.6888 20.2661 14.4155 20.3587 14.1747C20.4513 13.9338 20.6181 13.7578 20.859 13.6466C21.1184 13.5262 21.3592 13.5238 21.5816 13.6396C21.804 13.7554 21.9939 13.9801 22.1514 14.3136L25.3754 21.1369C26.4594 23.416 26.8369 25.4195 26.508 27.1472C26.1791 28.875 25.329 30.4246 23.9579 31.7958ZM11.84 8.61598C11.6362 8.81053 11.4787 9.03288 11.3675 9.28302C11.2563 9.53316 11.1961 9.78794 11.1869 10.0473L12.9379 11.4509C12.734 11.2471 12.6298 11.0132 12.6252 10.7491C12.6206 10.4851 12.7201 10.2512 12.924 10.0473C13.1278 9.84352 13.3594 9.74624 13.6188 9.75551C13.8782 9.76477 14.1098 9.87594 14.3136 10.089L19.0385 14.814L20.1641 13.3131L15.5087 8.67156C14.9344 8.09716 14.316 7.80765 13.6535 7.80302C12.9911 7.79839 12.3866 8.06938 11.84 8.61598ZM28.9052 31.8652C30.6377 30.1328 31.6429 28.1988 31.9207 26.0633C32.1987 23.9279 31.7448 21.6094 30.5589 19.108L27.4183 12.4932C27.131 11.8817 26.7558 11.4185 26.2927 11.1035C25.8294 10.7885 25.3152 10.631 24.7501 10.631C24.5277 10.631 24.2753 10.6727 23.9928 10.7561C23.7102 10.8394 23.4414 10.9761 23.1866 11.166C22.9319 11.356 22.7212 11.6084 22.5544 11.9234C22.3876 12.2384 22.3042 12.6229 22.3042 13.0768C22.3042 13.2436 22.3135 13.4011 22.3321 13.5493L23.9719 14.0079C23.8792 13.8041 23.8328 13.6049 23.8328 13.4104C23.8328 13.188 23.9209 12.9842 24.0969 12.7989C24.2729 12.6136 24.5091 12.521 24.8056 12.521C25.2319 12.521 25.5561 12.7572 25.7784 13.2297L28.933 19.8862C30.0076 22.156 30.3828 24.1572 30.0586 25.8897C29.7343 27.6221 28.882 29.1692 27.5017 30.5312C26.3806 31.6521 25.1901 32.3933 23.9302 32.7546L21.9012 34.8947C23.152 34.9317 24.3726 34.6954 25.5631 34.1859C26.7536 33.6764 27.8676 32.9028 28.9052 31.8652Z" fill="black" fill-opacity="0.85"/>
</g>
</g>
<defs>
<filter id="filter0_d_1161_7515" x="-26.76" y="-12.88" width="408.26" height="79.26" filterUnits="userSpaceOnUse" color-interpolation-filters="sRGB">
<feFlood flood-opacity="0" result="BackgroundImageFix"/>
<feColorMatrix in="SourceAlpha" type="matrix" values="0 0 0 0 0 0 0 0 0 0 0 0 0 0 0 0 0 0 127 0" result="hardAlpha"/>
<feOffset dx="2.87" dy="5.75"/>
<feGaussianBlur stdDeviation="4.315"/>
<feComposite in2="hardAlpha" operator="out"/>
<feColorMatrix type="matrix" values="0 0 0 0 0 0 0 0 0 0 0 0 0 0 0 0 0 0 0.03 0"/>
<feBlend mode="normal" in2="BackgroundImageFix" result="effect1_dropShadow_1161_7515"/>
<feBlend mode="normal" in="SourceGraphic" in2="effect1_dropShadow_1161_7515" result="shape"/>
</filter>
<clipPath id="clip0_1161_7515">
<rect width="430" height="932" fill="white" transform="translate(-38 -649)"/>
</clipPath>
<clipPath id="clip1_1161_7515">
<rect width="32" height="39.5085" fill="white"/>
</clipPath>
</defs>
</svg>
