<svg width="34" height="26" viewBox="0 0 34 26" fill="none" xmlns="http://www.w3.org/2000/svg">
<g clip-path="url(#clip0_1210_16441)">
<path d="M20.403 8.34655H28.2757C28.5257 8.34655 28.7371 8.26182 28.9102 8.09234C29.0832 7.92287 29.1698 7.71574 29.1698 7.47095C29.1698 7.22615 29.0832 7.02137 28.9102 6.8566C28.7371 6.69184 28.5257 6.60945 28.2757 6.60945H20.403C20.1434 6.60945 19.9271 6.69184 19.7541 6.8566C19.581 7.02137 19.4945 7.22615 19.4945 7.47095C19.4945 7.71574 19.581 7.92287 19.7541 8.09234C19.9271 8.26182 20.1434 8.34655 20.403 8.34655ZM20.403 13.8827H28.2757C28.5257 13.8827 28.7371 13.7979 28.9102 13.6285C29.0832 13.459 29.1698 13.2472 29.1698 12.993C29.1698 12.7576 29.0832 12.5575 28.9102 12.3927C28.7371 12.228 28.5257 12.1456 28.2757 12.1456H20.403C20.1434 12.1456 19.9271 12.228 19.7541 12.3927C19.581 12.5575 19.4945 12.7576 19.4945 12.993C19.4945 13.2472 19.581 13.459 19.7541 13.6285C19.9271 13.7979 20.1434 13.8827 20.403 13.8827ZM20.403 19.4047H28.2757C28.5257 19.4047 28.7371 19.3223 28.9102 19.1576C29.0832 18.9928 29.1698 18.7927 29.1698 18.5573C29.1698 18.3125 29.0832 18.103 28.9102 17.9289C28.7371 17.7547 28.5257 17.6676 28.2757 17.6676H20.403C20.1434 17.6676 19.9271 17.7547 19.7541 17.9289C19.581 18.103 19.4945 18.3125 19.4945 18.5573C19.4945 18.7927 19.581 18.9928 19.7541 19.1576C19.9271 19.3223 20.1434 19.4047 20.403 19.4047ZM5.3783 19.4047H16.6395C16.8702 19.4047 17.0457 19.3341 17.1659 19.1929C17.286 19.0516 17.346 18.8775 17.346 18.6704C17.346 18.3408 17.2187 17.9124 16.964 17.3852C16.7093 16.8579 16.3199 16.3283 15.796 15.7964C15.2721 15.2644 14.6113 14.8195 13.8134 14.4617C13.0156 14.1039 12.0783 13.9251 11.0017 13.9251C9.92509 13.9251 8.99026 14.1039 8.19722 14.4617C7.40417 14.8195 6.7457 15.2644 6.22181 15.7964C5.69792 16.3283 5.3086 16.8579 5.05387 17.3852C4.79913 17.9124 4.67176 18.3408 4.67176 18.6704C4.67176 18.8775 4.73184 19.0516 4.852 19.1929C4.97216 19.3341 5.14759 19.4047 5.3783 19.4047ZM11.0017 12.9365C11.8765 12.9365 12.6214 12.6163 13.2367 11.9761C13.8519 11.3359 14.1595 10.5309 14.1595 9.56112C14.1595 8.95855 14.0177 8.40776 13.7341 7.90875C13.4505 7.40975 13.0708 7.0096 12.595 6.70831C12.1192 6.40703 11.5881 6.25638 11.0017 6.25638C10.425 6.25638 9.89625 6.40703 9.41562 6.70831C8.93499 7.0096 8.55289 7.40975 8.26932 7.90875C7.98574 8.40776 7.84395 8.95855 7.84395 9.56112C7.84395 10.5309 8.15396 11.3359 8.77397 11.9761C9.394 12.6163 10.1366 12.9365 11.0017 12.9365ZM4.52758 26H29.4724C30.9913 26 32.1256 25.6352 32.8753 24.9055C33.6251 24.1758 34 23.086 34 21.636V4.37805C34 2.92812 33.6251 1.83596 32.8753 1.10158C32.1256 0.367192 30.9913 0 29.4724 0H4.52758C3.01838 0 1.88649 0.364838 1.13189 1.09451C0.377298 1.82419 0 2.9187 0 4.37805V21.636C0 23.086 0.377298 24.1758 1.13189 24.9055C1.88649 25.6352 3.01838 26 4.52758 26ZM4.55642 23.7262C3.83547 23.7262 3.28274 23.5403 2.89822 23.1684C2.51372 22.7965 2.32147 22.2434 2.32147 21.5089V4.50516C2.32147 3.77078 2.51372 3.21529 2.89822 2.83868C3.28274 2.46207 3.83547 2.27377 4.55642 2.27377H29.4436C30.155 2.27377 30.7054 2.46207 31.0947 2.83868C31.484 3.21529 31.6786 3.77078 31.6786 4.50516V21.5089C31.6786 22.2434 31.484 22.7965 31.0947 23.1684C30.7054 23.5403 30.155 23.7262 29.4436 23.7262H4.55642Z" fill="black" fill-opacity="0.85"/>
</g>
<defs>
<clipPath id="clip0_1210_16441">
<rect width="34" height="26" fill="white"/>
</clipPath>
</defs>
</svg>
