<svg width="47" height="47" viewBox="0 0 47 47" fill="none" xmlns="http://www.w3.org/2000/svg">
<g id="Verified">
<circle id="Ellipse 31" cx="23.3104" cy="17.8253" r="5.48468" stroke="white" stroke-width="2.74232"/>
<path id="Vector 197" d="M24.6816 30.1658L28.7951 34.2793L34.2798 24.6812" stroke="white" stroke-width="2.74232" stroke-linecap="round" stroke-linejoin="round"/>
<path id="Rectangle 35" d="M20.5681 35.6506C21.3253 35.6506 21.9392 35.0367 21.9392 34.2794C21.9392 33.5221 21.3253 32.9082 20.5681 32.9082V35.6506ZM20.5681 32.9082H12.8634V35.6506H20.5681V32.9082ZM22.7881 24.6812H23.3104V21.9389H22.7881V24.6812ZM12.8634 32.9082C13.3322 32.9082 13.7122 33.2883 13.7122 33.7571H10.9699C10.9699 34.8028 11.8177 35.6506 12.8634 35.6506V32.9082ZM13.7122 33.7571C13.7122 28.7446 17.7756 24.6812 22.7881 24.6812V21.9389C16.2611 21.9389 10.9699 27.2301 10.9699 33.7571H13.7122Z" fill="white"/>
</g>
</svg>
